:SAMPLES-PER-SECOND 30
:FULLY-SPECIFIED
:DEGREES
225
root  4.81441 38.3035 8.65022 -174.228 36.6898 177.562
RightUpLeg  -13.2476 0.301546 -8.26017
RightLeg  29.7226 -8.58298 -5.50562
RightFoot  -14.4846 0.516318 22.3217
RightToes  2.32829e-010 0 -3.6325e-017
Spine  9.13428 -2.46869 -1.28232
Spine1  19.3543 -2.87487 0.603881
HEad  -26.3219 27.6599 -18.9167
LeftShoulder1  1.03521 -0.846136 -17.1063
LeftArm  18.3319 6.63336 -63.4569
LeftForeArm  32.1356 -74.1395 -40.8663
LeftHand  -1.42852 -1.95757 22.5741
RightShoulder  0.48574 -0.960149 12.1315
RightArm  13.1273 -7.74087 60.8261
RightForeArm  67.1866 76.8623 114.511
RightHand  -0.107697 -2.09275 -3.52093
LeftUpLeg  -16.0793 -1.93889 16.1059
LeftLeg  30.627 11.5246 7.62022
LeftFoot  -0.0773372 0.221918 -2.31965
LeftToes  -5.54824e-011 -8.71001e-011 8.3852e-012
226
root  3.7374 38.7604 8.29111 -173.451 38.9822 176.789
RightUpLeg  -14.3991 2.33963 -11.0611
RightLeg  26.0535 -8.30114 -4.62827
RightFoot  -9.89479 -0.367465 23.5634
RightToes  2.32829e-010 0 -3.6325e-017
Spine  10.603 -2.64314 -3.86985
Spine1  17.1606 -4.0493 2.39498
HEad  -26.9597 29.3941 -19.8302
LeftShoulder1  0.973869 -0.698529 -16.4323
LeftArm  18.4688 7.7324 -62.983
LeftForeArm  40.2781 -76.0825 -48.3869
LeftHand  -1.52778 -2.52159 22.4161
RightShoulder  0.465715 -1.10558 12.4917
RightArm  11.1105 -11.4492 60.3078
RightForeArm  78.6766 75.9785 122.45
RightHand  -0.14324 -1.35756 -3.97451
LeftUpLeg  -15.0572 -1.79483 15.6374
LeftLeg  25.6155 12.6339 6.84478
LeftFoot  2.45617 -0.0347963 0.194635
LeftToes  -5.54824e-011 -8.71001e-011 8.3852e-012
227
root  2.63133 39.1087 7.80854 -171.884 43.1101 176.708
RightUpLeg  -16.402 4.69574 -13.4791
RightLeg  22.0089 -7.83959 -3.67936
RightFoot  -5.50487 -1.24257 23.4192
RightToes  2.32829e-010 0 -3.6325e-017
Spine  11.3025 -2.21414 -5.05093
Spine1  14.9813 -3.82404 2.74844
HEad  -27.0479 30.7255 -20.5141
LeftShoulder1  0.862358 -0.27807 -16.0279
LeftArm  18.739 9.29962 -61.5735
LeftForeArm  52.3248 -77.9078 -59.1028
LeftHand  -1.76401 -3.44828 23.1603
RightShoulder  0.464021 -1.08266 12.2115
RightArm  8.70183 -14.7337 59.7305
RightForeArm  89.1229 74.509 130.868
RightHand  -0.131152 -1.16574 -3.47024
LeftUpLeg  -13.9581 -0.513368 15.3359
LeftLeg  21.5718 13.8639 6.28487
LeftFoot  4.44948 0.300597 -2.25017
LeftToes  -5.54824e-011 -8.71001e-011 8.3852e-012
228
root  1.51672 39.1035 7.23515 -169.453 47.9697 177.387
RightUpLeg  -19.7238 5.56394 -15.2043
RightLeg  19.9546 -8.23407 -3.51061
RightFoot  -3.16743 -1.61947 22.0731
RightToes  2.32829e-010 0 -3.6325e-017
Spine  10.8461 -1.58758 -5.26682
Spine1  13.4586 -2.98097 2.47444
HEad  -27.0284 31.8224 -20.7282
LeftShoulder1  0.827556 -0.205206 -15.4979
LeftArm  18.5109 11.0428 -59.9888
LeftForeArm  63.1204 -78.9417 -70.3746
LeftHand  -1.93641 -3.91041 24.1371
RightShoulder  0.466659 -0.989205 11.5213
RightArm  6.42577 -16.5335 59.1401
RightForeArm  94.8492 73.3182 135.718
RightHand  -0.136406 -0.929231 -3.44848
LeftUpLeg  -13.2931 1.05971 15.4377
LeftLeg  19.5157 14.4541 5.93887
LeftFoot  3.94671 1.60921 -12.3786
LeftToes  -5.54824e-011 -8.71001e-011 8.3852e-012
229
root  0.35981 38.7325 6.67955 -167.853 52.4396 178.36
RightUpLeg  -22.7795 3.02845 -15.8197
RightLeg  21.4071 -8.56096 -3.89501
RightFoot  -3.58307 -1.47835 21.1951
RightToes  2.32829e-010 0 -3.6325e-017
Spine  10.9322 -1.09167 -4.98619
Spine1  12.8522 -2.16849 1.81191
HEad  -27.4078 32.2003 -20.7427
LeftShoulder1  0.858459 -0.418734 -15.0267
LeftArm  17.932 11.8221 -58.7364
LeftForeArm  66.1353 -79.1672 -75.679
LeftHand  -2.00334 -3.758 25.3361
RightShoulder  0.468729 -0.909872 10.9688
RightArm  4.35555 -16.2727 58.3666
RightForeArm  97.6998 72.8799 137.378
RightHand  -0.175164 -0.585124 -4.19292
LeftUpLeg  -12.5864 3.34515 15.1363
LeftLeg  19.8198 13.3848 5.60399
LeftFoot  -0.78898 2.20004 -23.6858
LeftToes  -5.54824e-011 -8.71001e-011 8.3852e-012
230
root  -0.796285 38.142 6.28393 -168.688 56.1403 178.673
RightUpLeg  -24.628 -1.91662 -15.578
RightLeg  26.9686 -7.74057 -4.47793
RightFoot  -6.32233 -0.998217 21.6147
RightToes  2.32829e-010 0 -3.6325e-017
Spine  12.47 -0.633212 -5.14494
Spine1  13.2896 -1.41162 0.540411
HEad  -27.0544 30.4709 -20.0191
LeftShoulder1  0.904725 -0.634328 -15.0021
LeftArm  17.4744 9.44265 -58.5165
LeftForeArm  48.0718 -77.6238 -59.8273
LeftHand  -2.09825 -3.33275 27.7046
RightShoulder  0.48604 -0.800279 10.8583
RightArm  1.83134 -14.3172 57.3595
RightForeArm  96.286 73.4353 135.555
RightHand  -0.235142 -0.436492 -5.50466
LeftUpLeg  -12.009 6.77357 13.9118
LeftLeg  22.9742 10.631 5.22007
LeftFoot  -8.40598 0.827113 -28.1609
LeftToes  -5.54824e-011 -8.71001e-011 8.3852e-012
231
root  -1.82483 37.4969 6.06633 -171.281 58.8797 177.693
RightUpLeg  -25.9677 -6.00517 -15.6208
RightLeg  35.1695 -5.96724 -4.72649
RightFoot  -10.0575 -0.328675 23.0845
RightToes  2.32829e-010 0 -3.6325e-017
Spine  13.8814 -0.108438 -6.39532
Spine1  14.7049 -0.847978 -0.525975
HEad  -24.355 25.8324 -17.3995
LeftShoulder1  1.0226 -1.15748 -15.0951
LeftArm  17.1029 4.16133 -59.6867
LeftForeArm  21.0848 -71.4483 -34.8739
LeftHand  -2.30552 -2.87802 31.8655
RightShoulder  0.502193 -0.73979 11.0728
RightArm  -0.976977 -11.6753 56.5505
RightForeArm  87.6977 75.177 127.894
RightHand  -0.350035 -0.13328 -7.71765
LeftUpLeg  -12.4275 10.163 12.1095
LeftLeg  27.9539 8.36678 5.1557
LeftFoot  -15.4355 -0.849103 -26.1143
LeftToes  -5.54824e-011 -8.71001e-011 8.3852e-012
232
root  -2.56886 37.0634 5.95569 -173.866 60.3559 175.461
RightUpLeg  -27.1005 -8.19815 -15.9429
RightLeg  42.4185 -3.35446 -3.55406
RightFoot  -12.9962 0.275109 24.9418
RightToes  2.32829e-010 0 -3.6325e-017
Spine  13.697 0.166955 -8.60423
Spine1  16.3456 -0.872689 -0.706681
HEad  -19.7726 19.3669 -13.2749
LeftShoulder1  1.25133 -2.26517 -14.8356
LeftArm  16.1417 -0.334102 -61.3263
LeftForeArm  6.43483 -63.6416 -22.7542
LeftHand  -2.59065 -2.59303 36.7331
RightShoulder  0.491288 -0.8303 11.3089
RightArm  -2.8567 -9.49212 56.652
RightForeArm  71.8715 77.4398 111.013
RightHand  -0.55864 0.85233 -10.4809
LeftUpLeg  -13.629 11.9767 10.0157
LeftLeg  31.2291 7.9674 5.55231
LeftFoot  -18.901 -1.49797 -23.9199
LeftToes  -5.54824e-011 -8.71001e-011 8.3852e-012
233
root  -2.94726 37.0837 5.9191 -174.865 60.7816 173.651
RightUpLeg  -27.0673 -9.08745 -15.1323
RightLeg  45.6431 -1.05011 -1.50406
RightFoot  -14.1791 0.565501 26.4107
RightToes  2.32829e-010 0 -3.6325e-017
Spine  12.6547 0.00249037 -10.4078
Spine1  17.1062 -1.3318 -0.354753
HEad  -15.1118 13.3714 -9.63194
LeftShoulder1  1.44889 -3.26107 -14.53
LeftArm  14.0967 -1.31118 -62.4549
LeftForeArm  3.60164 -61.125 -20.6316
LeftHand  -2.9494 -2.86153 40.188
RightShoulder  0.468719 -0.957944 11.354
RightArm  -3.34992 -8.85985 57.6446
RightForeArm  51.7775 78.4287 85.4058
RightHand  -0.799812 2.15865 -12.4824
LeftUpLeg  -14.3676 12.1968 8.51117
LeftLeg  30.6805 8.29151 5.64753
LeftFoot  -18.7986 -1.51308 -24.6521
LeftToes  -5.54824e-011 -8.71001e-011 8.3852e-012
234
root  -2.98472 37.5847 5.9987 -173.658 60.8936 173.895
RightUpLeg  -24.902 -9.34651 -12.1425
RightLeg  43.3168 -0.794004 -1.08043
RightFoot  -13.8428 0.491454 26.4001
RightToes  2.32829e-010 0 -3.6325e-017
Spine  11.9845 -0.101464 -10.8849
Spine1  16.4908 -1.52939 0.0591704
HEad  -11.2821 9.46786 -7.53451
LeftShoulder1  1.42905 -3.16803 -14.5383
LeftArm  12.3921 0.244202 -63.6113
LeftForeArm  9.68725 -64.1351 -23.291
LeftHand  -3.29566 -3.71543 40.663
RightShoulder  0.468426 -0.946317 11.2472
RightArm  -3.16305 -10.2374 58.353
RightForeArm  34.2375 77.169 61.1953
RightHand  -0.974679 3.19133 -13.3826
LeftUpLeg  -14.042 11.6699 8.36753
LeftLeg  27.1223 9.1441 5.40542
LeftFoot  -15.6598 -0.890187 -25.6888
LeftToes  -5.54824e-011 -8.71001e-011 8.3852e-012
235
root  -2.75973 38.3836 6.18297 -170.66 60.7411 175.807
RightUpLeg  -20.9599 -10.0978 -7.67466
RightLeg  35.4644 -3.25945 -2.71313
RightFoot  -12.5524 0.175187 23.8977
RightToes  2.32829e-010 0 -3.6325e-017
Spine  11.3052 0.144493 -10.5273
Spine1  15.0955 -1.36359 0.934104
HEad  -8.18903 7.4135 -6.02409
LeftShoulder1  1.21994 -2.21479 -14.4275
LeftArm  12.0616 2.09801 -65.4669
LeftForeArm  20.0491 -68.4243 -28.0183
LeftHand  -3.4201 -4.67328 38.3488
RightShoulder  0.483944 -0.832666 11.0178
RightArm  -2.59386 -13.051 57.9639
RightForeArm  20.3257 74.2398 44.5757
RightHand  -1.0891 3.77837 -13.9889
LeftUpLeg  -13.4327 10.1493 9.17141
LeftLeg  22.1588 12.0892 5.64254
LeftFoot  -9.4571 0.444396 -24.38
LeftToes  -5.54824e-011 -8.71001e-011 8.3852e-012
236
root  -2.37607 39.1392 6.39487 -167.63 59.6361 177.106
RightUpLeg  -16.6665 -11.8648 -4.07228
RightLeg  24.6735 -7.53338 -3.81876
RightFoot  -10.9859 -0.139003 19.8661
RightToes  2.32829e-010 0 -3.6325e-017
Spine  9.61103 0.287149 -10.5204
Spine1  13.7996 -1.48619 2.56957
HEad  -5.61354 5.82613 -4.11222
LeftShoulder1  1.04532 -1.53362 -13.7977
LeftArm  11.9179 3.13692 -67.3783
LeftForeArm  29.1824 -71.4781 -32.8386
LeftHand  -3.41496 -5.35408 36.0459
RightShoulder  0.496987 -0.684467 10.4647
RightArm  -1.50856 -16.5528 57.1903
RightForeArm  7.6947 70.1482 33.6333
RightHand  -1.19349 3.96213 -15.0038
LeftUpLeg  -13.4625 7.64811 9.71596
LeftLeg  17.134 17.6109 6.19864
LeftFoot  -2.4154 1.65395 -20.8397
LeftToes  -5.54824e-011 -8.71001e-011 8.3852e-012
237
root  -1.96756 39.5248 6.62337 -166.794 57.6635 176.119
RightUpLeg  -13.3467 -11.5669 -3.48833
RightLeg  16.1706 -13.169 -3.22649
RightFoot  -10.3433 -0.226229 17.4947
RightToes  2.32829e-010 0 -3.6325e-017
Spine  7.47978 -0.00613606 -11.3673
Spine1  12.8185 -2.06653 4.02263
HEad  -3.70046 3.9631 -2.5119
LeftShoulder1  1.00853 -1.53718 -12.978
LeftArm  11.2065 2.59318 -68.4846
LeftForeArm  33.8742 -72.9188 -35.8769
LeftHand  -3.55635 -5.70621 36.3142
RightShoulder  0.524711 -0.402255 9.65675
RightArm  -0.818005 -20.3795 57.0763
RightForeArm  -2.152 65.0648 25.8415
RightHand  -1.32351 4.08395 -16.3843
LeftUpLeg  -14.6174 7.8831 8.66365
LeftLeg  14.987 21.5372 6.52166
LeftFoot  0.691802 1.8443 -17.2822
LeftToes  -5.54824e-011 -8.71001e-011 8.3852e-012
238
root  -1.63754 39.6054 6.88288 -167.657 55.8705 174.773
RightUpLeg  -11.4407 -8.5399 -4.43824
RightLeg  13.4792 -17.2936 -2.85116
RightFoot  -10.5473 -0.201268 18.8682
RightToes  2.32829e-010 0 -3.6325e-017
Spine  6.58069 -0.391289 -12.1101
Spine1  12.2297 -2.59013 4.64292
HEad  -2.81637 2.6026 -2.26833
LeftShoulder1  1.00663 -1.67682 -12.3371
LeftArm  10.1658 -0.569911 -69.1514
LeftForeArm  31.817 -72.1462 -34.1768
LeftHand  -3.85971 -5.80736 38.8492
RightShoulder  0.57937 -0.00282705 9.22101
RightArm  -1.71897 -23.7246 57.5848
RightForeArm  -8.44004 58.5781 19.5981
RightHand  -1.5179 4.39932 -18.1281
LeftUpLeg  -16.4697 13.7947 5.97358
LeftLeg  17.9071 19.5062 6.92922
LeftFoot  -1.37548 1.42885 -16.2673
LeftToes  -5.54824e-011 -8.71001e-011 8.3852e-012
